PathFileType  4	(X/Y/Z) C:\Users\antoi\Documents\MyRepositories\mobilecap\ResultsAnalysis
DataRate	CameraRate	NumFrames	NumMarkers	Units	OrigDataRate	OrigDataStartFrame	OrigNumFrames
100.0	100.0	5	51	mm	100.0	1311	1747
Frame#	Time	r_knee			r_shank_antsup			r_ankle			r_calc			r_5meta			r_toe			L_knee			L_shank_antsup			L_ankle			L_calc			L_5meta			L_toe			r_sh2			r_sh3			r_sh4			L_sh2			L_sh3			r_thigh1			r_thigh2			r_thigh3			r_thigh4			r_thigh5			L_thigh1			L_thigh2			L_thigh3			L_thigh4			r.ASIS			r.PSIS			L.ASIS			L.PSIS			C7			R_Shoulder			L_Shoulder			R_Sternum			L_Sternum			R_humerus			R_elbow_med			R_elbow_lat			R_forearm			R_wrist_radius			R_wrist_ulna			L_humerus			L_elbow_med			L_elbow_lat			L_forearm			L_wrist_radius			L_wrist_ulna			R_HJC			L_HJC			R_HJC_reg			L_HJC_reg			
		X1	Y1	Z1	X2	Y2	Z2	X3	Y3	Z3	X4	Y4	Z4	X5	Y5	Z5	X6	Y6	Z6	X7	Y7	Z7	X8	Y8	Z8	X9	Y9	Z9	X10	Y10	Z10	X11	Y11	Z11	X12	Y12	Z12	X13	Y13	Z13	X14	Y14	Z14	X15	Y15	Z15	X16	Y16	Z16	X17	Y17	Z17	X18	Y18	Z18	X19	Y19	Z19	X20	Y20	Z20	X21	Y21	Z21	X22	Y22	Z22	X23	Y23	Z23	X24	Y24	Z24	X25	Y25	Z25	X26	Y26	Z26	X27	Y27	Z27	X28	Y28	Z28	X29	Y29	Z29	X30	Y30	Z30	X31	Y31	Z31	X32	Y32	Z32	X33	Y33	Z33	X34	Y34	Z34	X35	Y35	Z35	X36	Y36	Z36	X37	Y37	Z37	X38	Y38	Z38	X39	Y39	Z39	X40	Y40	Z40	X41	Y41	Z41	X42	Y42	Z42	X43	Y43	Z43	X44	Y44	Z44	X45	Y45	Z45	X46	Y46	Z46	X47	Y47	Z47	X48	Y48	Z48	X49	Y49	Z49	X50	Y50	Z50	X51	Y51	Z51	

1311	13.10000000	-168.90506	520.36771	-383.37063	-119.39033	401.12382	-390.47962	-282.99434	101.78177	-408.09184	-346.20921	67.63079	-463.24366	-166.40703	38.36011	-340.06960	-117.06046	60.57042	-405.29150	-176.80420	515.05377	-918.80289	-109.02106	420.52279	-902.83154	-246.05900	93.67681	-890.97086	-313.68257	69.08934	-844.64678	-106.19395	34.58479	-909.17316	-78.96964	61.20997	-839.72233	-143.77656	289.58246	-414.67347	-187.10528	405.11031	-352.10934	-203.88438	289.06580	-355.33382	-190.00520	431.14349	-942.61728	-186.87985	309.65149	-951.46484	-388.40193	621.49403	-476.60614	-276.01526	623.89245	-457.27292	-260.77299	606.38186	-394.48874	-398.53615	557.84977	-379.23857	-278.56081	558.15227	-370.84134	-415.71139	603.06805	-850.78302	-282.88347	613.81240	-876.84508	-421.31660	508.06831	-913.71588	-284.49178	516.51469	-933.67198	-542.32011	613.24587	-528.17059	-701.59592	606.52022	-595.97838	-546.33893	597.27817	-807.72528	-702.35773	603.68448	-690.28887	-495.69166	1087.21251	-652.58346	-443.31734	1013.10648	-469.00729	-422.61450	1021.72564	-815.58926	-380.05975	980.06698	-625.11606	-379.57436	975.10051	-667.76276	-440.82095	864.79122	-383.33211	-513.22290	641.95840	-388.34847	-473.53134	680.48784	-311.30761	-371.55967	760.15580	-414.18484	-296.41315	802.99293	-494.93158	-261.99380	781.40600	-479.33167	-395.52150	880.14104	-907.87707	-444.10215	649.43337	-942.78853	-377.10063	696.46306	-982.00704	-338.02485	766.61184	-839.12222	-274.47571	799.73739	-744.42479	-241.85564	765.86186	-754.83625	-578.27076	518.60584	-556.56680	-590.41951	497.19318	-768.53356	-588.90001	512.01886	-565.02625	-590.39297	506.46528	-749.76204	
1312	13.11000000	-169.40166	520.74009	-383.46397	-119.84939	401.39229	-390.50716	-283.05827	101.77882	-408.09450	-346.24031	67.63090	-463.25199	-166.42752	38.34029	-340.07828	-117.09719	60.55126	-405.31638	-177.02492	515.23116	-918.29685	-109.21647	420.73947	-902.42016	-246.08985	93.66897	-890.83349	-313.64832	69.07257	-844.66611	-106.18940	34.60158	-909.15591	-78.98168	61.20153	-839.68236	-144.03181	289.78147	-414.75297	-187.50910	405.30340	-352.18921	-204.40307	289.52137	-354.99178	-190.10694	431.22536	-942.37046	-186.85794	309.67858	-951.17117	-389.02015	621.37119	-476.95632	-276.66735	624.02187	-457.58341	-261.40632	606.70109	-394.89168	-399.03160	558.00929	-379.62406	-279.13005	558.47730	-371.02947	-417.19112	602.51592	-851.22473	-283.42081	614.21730	-876.32098	-421.46844	508.39865	-913.48664	-284.60520	517.05195	-933.68251	-544.19709	613.20111	-527.42617	-703.87549	604.69867	-596.11652	-547.02736	597.79927	-806.97576	-704.91414	602.03553	-690.26393	-503.90468	1088.08449	-652.57785	-451.39500	1013.94080	-468.70866	-430.06694	1022.81039	-815.98059	-387.19866	981.55130	-625.14010	-386.66800	976.63274	-667.82024	-448.09868	865.04087	-383.60889	-518.09187	641.28288	-389.25430	-479.25684	680.34798	-312.35173	-377.41991	760.55896	-415.06183	-302.28780	804.09964	-495.35985	-267.83577	782.55447	-479.69000	-404.16185	879.74459	-908.07413	-454.12714	649.49758	-939.80871	-387.25235	695.10018	-980.30340	-346.22838	766.57816	-838.30964	-281.41424	799.89855	-744.60160	-249.19803	765.63076	-755.05645	-579.48375	518.18599	-556.22586	-590.52788	497.08978	-768.28416	-588.99908	511.55692	-564.32530	-591.03757	506.33276	-749.03225	
1313	13.12000000	-169.92852	521.29357	-383.43071	-120.35494	401.65006	-390.68023	-283.12434	101.76881	-408.12314	-346.26395	67.61577	-463.26000	-166.41290	38.31893	-340.06763	-117.07405	60.54123	-405.29577	-177.33781	515.36183	-917.79316	-109.58335	421.01354	-902.11969	-246.12010	93.65990	-890.70925	-313.63681	69.00506	-844.61261	-106.18885	34.61638	-909.13675	-79.01062	61.16904	-839.63388	-144.37944	290.07521	-414.81938	-188.02511	405.49627	-352.39876	-204.73081	289.67750	-354.97111	-190.34454	431.33123	-942.11559	-186.89588	309.75554	-950.94727	-389.70330	621.42460	-477.28000	-277.36450	624.18870	-457.96868	-262.04368	607.03684	-395.26294	-399.64300	558.24093	-379.99693	-279.73732	558.76231	-371.34297	-418.63904	602.38744	-851.63616	-284.41843	614.63531	-875.95676	-421.73226	508.75740	-913.34480	-284.82760	517.63782	-933.64875	-546.07356	613.19750	-526.66272	-706.22239	602.98059	-596.27560	-547.70893	597.84142	-806.17512	-707.26909	600.31365	-690.54108	-512.04276	1088.87489	-652.56042	-459.34565	1014.75781	-468.59730	-437.34754	1024.02558	-816.36956	-394.13865	982.85682	-625.17473	-393.90745	977.98394	-667.76319	-455.20320	865.51635	-383.67609	-523.19474	640.82653	-389.85496	-485.08813	680.43506	-313.16941	-383.15288	761.10597	-415.81206	-307.97307	805.11559	-495.82240	-273.49602	783.59155	-480.14617	-412.61312	879.46136	-908.02871	-464.17368	649.54809	-936.85362	-397.46213	693.87243	-978.57806	-354.01802	766.21522	-837.92001	-287.99010	799.96281	-744.83078	-256.25987	765.19174	-755.19996	-580.85573	517.79466	-555.75025	-590.66007	496.64463	-767.86451	-589.48839	511.12196	-563.54686	-591.54087	505.89748	-748.22036	
1314	13.13000000	-170.50305	521.82790	-383.50969	-120.92899	401.89423	-391.03201	-283.15238	101.79587	-408.11147	-346.26172	67.63437	-463.23313	-166.39155	38.33203	-340.05891	-116.98449	60.56476	-405.24284	-177.70369	515.54005	-917.43184	-110.08538	421.29278	-901.83024	-246.15242	93.60778	-890.50760	-313.63524	68.92800	-844.43638	-106.19304	34.62868	-909.11929	-79.04766	61.13691	-839.59945	-144.76848	290.44693	-414.83297	-188.57803	405.72230	-352.64320	-204.87240	289.54786	-355.37355	-190.71634	431.46273	-941.81140	-187.04317	309.82191	-950.71110	-390.36447	621.73711	-477.71822	-278.04059	624.45585	-458.44121	-262.65970	607.35895	-395.62771	-400.38016	558.58053	-380.32021	-280.43437	559.10846	-371.73353	-419.12773	602.75479	-851.33498	-284.95666	614.79935	-875.40731	-422.09218	509.14735	-913.34447	-285.19106	518.09278	-933.41400	-547.94823	613.23299	-525.88371	-708.61348	601.48543	-596.27357	-548.69033	598.17140	-805.36348	-709.40167	598.90447	-690.71241	-520.06335	1089.61939	-652.45450	-467.09756	1015.54485	-468.57432	-444.50332	1025.23529	-816.59677	-401.07418	983.98762	-625.07365	-401.01391	979.20673	-667.63062	-462.20676	866.16367	-383.63267	-527.74803	639.92831	-390.59713	-490.75916	680.43935	-314.15925	-388.81756	761.70078	-416.63191	-313.54949	806.04863	-496.26028	-279.01970	784.81623	-480.43138	-420.90746	879.24566	-907.70265	-473.91727	649.65152	-935.01957	-407.63106	692.97911	-976.90682	-361.52966	765.80748	-837.55616	-294.23332	799.92307	-745.17114	-263.07217	764.59353	-755.41088	-582.26064	517.50115	-555.30555	-591.00418	496.50053	-767.48116	-590.43645	510.79141	-562.97542	-591.97884	505.74680	-747.62396	
1315	13.14000000	-171.10812	522.21952	-383.70551	-121.56722	402.22434	-391.28812	-283.15788	101.86644	-408.05116	-346.24002	67.69262	-463.18665	-166.40374	38.34977	-340.06769	-116.92061	60.59888	-405.21401	-178.14611	515.73586	-917.22254	-110.65687	421.54708	-901.43925	-246.18677	93.54075	-890.26632	-313.64911	68.88678	-844.26774	-106.19489	34.64112	-909.10791	-79.07170	61.13194	-839.58321	-145.15610	290.83451	-414.81148	-189.25404	406.01267	-352.92570	-204.90149	289.38587	-355.98102	-191.22398	431.61439	-941.47463	-187.30060	309.83773	-950.40357	-391.06339	622.14985	-478.13432	-278.75254	624.77518	-458.89417	-263.31827	607.70937	-395.96918	-401.20542	559.01946	-380.56269	-281.19759	559.49702	-372.04089	-419.59856	602.63155	-850.98981	-284.85175	614.80256	-874.84100	-422.55218	509.39281	-913.25206	-285.67484	518.26792	-933.05383	-549.82078	613.30571	-525.09052	-710.94246	600.07004	-596.32254	-549.60482	599.23425	-804.56942	-711.64500	597.80099	-690.50869	-527.99142	1090.42515	-652.33161	-474.70473	1016.38114	-468.29719	-451.52301	1026.34840	-816.62314	-408.05892	985.16835	-624.77591	-407.94487	980.49560	-667.33399	-469.25116	866.82189	-383.48766	-531.54573	638.32058	-391.62278	-496.27458	680.27005	-315.45947	-394.39817	762.22380	-417.56043	-319.07013	806.93767	-496.68209	-284.48030	786.19389	-480.36410	-428.95934	879.06650	-907.28920	-483.56598	650.05383	-933.69213	-417.53946	692.40618	-975.20128	-368.92858	765.65949	-836.85296	-300.21857	799.79232	-745.56109	-269.70173	763.93122	-755.75999	-583.54678	517.29702	-555.00856	-591.33132	496.96288	-767.28559	-591.11313	510.58731	-562.54331	-592.49066	506.14173	-747.17511	
